<svg width="20" height="21" viewBox="0 0 20 21" fill="none" xmlns="http://www.w3.org/2000/svg">
<path fill-rule="evenodd" clip-rule="evenodd" d="M3.54704 2.96824L3.22796 1.68447C2.97954 0.694274 2.08945 -5.84639e-05 1.06857 3.69226e-09H0.742059C0.332231 3.69226e-09 0 0.332231 0 0.742059C0 1.15189 0.332231 1.48412 0.742059 1.48412H1.06857C1.41785 1.47394 1.72691 1.70883 1.81062 2.04808L4.45236 12.7931L4.72692 13.8988C4.97731 14.8971 5.8794 15.5936 6.90857 15.5832H16.3253C16.7351 15.5832 17.0674 15.251 17.0674 14.8412C17.0674 14.4314 16.7351 14.0991 16.3253 14.0991H6.90857C6.55929 14.1093 6.25023 13.8744 6.16651 13.5352L6.07747 13.1641L17.0674 10.5743C17.8799 10.3855 18.5186 9.75819 18.7222 8.94924L19.9778 3.88901C20.0939 3.42098 19.7398 2.96824 19.2576 2.96824H3.54704ZM17.3123 8.59305C17.2436 8.86403 17.0285 9.07343 16.7557 9.13475L5.73614 11.7245L3.9181 4.45236H18.3437L17.3123 8.59305ZM3.7103 18.5515C3.7103 17.322 4.70699 16.3253 5.93647 16.3253C7.16596 16.3253 8.16265 17.322 8.16265 18.5515C8.16265 19.781 7.16596 20.7777 5.93647 20.7777C4.70699 20.7777 3.7103 19.781 3.7103 18.5515ZM5.19439 18.5515C5.19439 18.9613 5.52662 19.2935 5.93644 19.2935C6.34627 19.2935 6.6785 18.9613 6.6785 18.5515C6.6785 18.1416 6.34627 17.8094 5.93644 17.8094C5.52662 17.8094 5.19439 18.1416 5.19439 18.5515ZM12.7845 17.6996C13.1291 16.8677 13.9408 16.3253 14.8412 16.3253C16.0707 16.3253 17.0674 17.322 17.0674 18.5515C17.0674 19.4519 16.525 20.2636 15.6931 20.6082C14.8613 20.9528 13.9037 20.7623 13.2671 20.1256C12.6304 19.4889 12.4399 18.5314 12.7845 17.6996ZM14.0991 18.5515C14.0991 18.9613 14.4313 19.2935 14.8412 19.2935C15.251 19.2935 15.5832 18.9613 15.5832 18.5515C15.5832 18.1416 15.251 17.8094 14.8412 17.8094C14.4313 17.8094 14.0991 18.1416 14.0991 18.5515Z" fill="white"/>
</svg>
