<svg width="22" height="22" viewBox="0 0 22 22" fill="none" xmlns="http://www.w3.org/2000/svg">
<path fill-rule="evenodd" clip-rule="evenodd" d="M16.25 12.41L12.5525 14.2625C12.3204 14.3965 12.0346 14.3965 11.8025 14.2625C10.2178 13.1666 8.84551 11.7917 7.7525 10.205C7.61853 9.97295 7.61853 9.68705 7.7525 9.455L9.59 5.75L6.965 0.5H0.5V1.25C0.5 12.4338 9.56623 21.5 20.75 21.5H21.5V15.035L16.25 12.41ZM20 20C10.2223 19.6161 2.38388 11.7777 2 2H6.035L7.91 5.75L6.41 8.75C6.05122 9.47142 6.10557 10.3296 6.5525 11C7.74569 12.7607 9.25341 14.2862 11 15.5C11.6704 15.9469 12.5286 16.0013 13.25 15.6425L16.25 14.1425L20 16.0175V20Z" fill="#BCBCBC"/>
</svg>
