<svg width="22" height="22" viewBox="0 0 22 22" fill="none" xmlns="http://www.w3.org/2000/svg">
<path fill-rule="evenodd" clip-rule="evenodd" d="M21.2825 20.2167L13.7825 12.7167C16.3099 9.62195 15.9673 5.08921 13.0035 2.40949C10.0398 -0.270233 5.49553 -0.155945 2.67022 2.66937C-0.155099 5.49468 -0.269386 10.0389 2.41033 13.0027C5.09005 15.9664 9.62279 16.309 12.7175 13.7817L20.2175 21.2817L21.2825 20.2167ZM2 7.99917C2 4.68546 4.68629 1.99917 8 1.99917C11.3137 1.99917 14 4.68546 14 7.99917C14 11.3129 11.3137 13.9992 8 13.9992C6.4087 13.9992 4.88258 13.367 3.75736 12.2418C2.63214 11.1166 2 9.59047 2 7.99917Z" fill="#BCBCBC"/>
</svg>
