<svg width="20" height="20" viewBox="0 0 20 20" fill="none" xmlns="http://www.w3.org/2000/svg">
<path d="M10.0009 5C10.7887 5 11.5314 5.29032 12.0941 5.82056C12.6793 6.37097 13.0019 7.11089 13 7.90323C13 9.06855 12.2854 10.1169 11.1788 10.5746C11.0089 10.6451 10.8628 10.769 10.7594 10.9301C10.656 11.0912 10.6002 11.2821 10.5992 11.4778V11.9355C10.5992 12.0242 10.5317 12.0968 10.4492 12.0968H9.54892C9.46639 12.0968 9.39887 12.0242 9.39887 11.9355V11.502C9.39887 11.0363 9.52641 10.5766 9.77211 10.1935C10.0141 9.81855 10.3517 9.53226 10.7493 9.36895C11.3889 9.10484 11.8015 8.53024 11.8015 7.90323C11.8015 7.01411 10.9931 6.29032 10.0009 6.29032C9.00875 6.29032 8.20037 7.01411 8.20037 7.90323V8.05645C8.20037 8.14516 8.13285 8.21774 8.05033 8.21774H7.15005C7.06752 8.21774 7 8.14516 7 8.05645V7.90323C7 7.11089 7.3226 6.37097 7.90778 5.82056C8.47046 5.29234 9.21319 5 10.0009 5Z" fill="#00285D"/>
<path d="M9.47044 14.7638C9.32974 14.6126 9.2507 14.4074 9.2507 14.1935C9.2507 13.9797 9.32974 13.7745 9.47044 13.6233C9.61113 13.4721 9.80196 13.3871 10.0009 13.3871C10.1999 13.3871 10.3907 13.4721 10.5314 13.6233C10.6721 13.7745 10.7512 13.9797 10.7512 14.1935C10.7512 14.4074 10.6721 14.6126 10.5314 14.7638C10.3907 14.915 10.1999 15 10.0009 15C9.80196 15 9.61113 14.915 9.47044 14.7638Z" fill="#00285D"/>
<path fill-rule="evenodd" clip-rule="evenodd" d="M0 10C0 4.47768 4.47768 0 10 0C15.5223 0 20 4.47768 20 10C20 15.5223 15.5223 20 10 20C4.47768 20 0 15.5223 0 10ZM1.69643 10C1.69643 14.5848 5.41518 18.3036 10 18.3036C14.5848 18.3036 18.3036 14.5848 18.3036 10C18.3036 5.41518 14.5848 1.69643 10 1.69643C5.41518 1.69643 1.69643 5.41518 1.69643 10Z" fill="#00285D"/>
</svg>
