<svg width="775" height="129" viewBox="0 0 775 129" fill="none" xmlns="http://www.w3.org/2000/svg">
<path d="M83.2896 110.39C85.3632 110.39 86.8992 109.661 87.8976 108.201C88.3584 108.201 88.5888 108.393 88.5888 108.777C88.5888 109.161 88.3968 109.737 88.0128 110.505C86.3232 112.809 84.2496 114.077 81.792 114.307C77.952 114.307 74.0352 112.233 70.0416 108.086C66.1248 104.016 62.592 99.0622 59.4432 93.2254C56.3712 87.3886 53.4912 81.5518 50.8032 75.715C48.1152 69.8014 45.696 64.8094 43.5456 60.739C41.3952 56.5918 39.7056 54.5182 38.4768 54.5182C37.9392 53.9806 38.3232 52.8286 39.6288 51.0622C60.4416 17.6542 74.9568 0.950163 83.1744 0.950163C84.2496 0.950163 85.0944 1.44936 85.7088 2.44776C86.3232 3.36936 86.7072 4.75176 86.8608 6.59496C83.5584 6.59496 79.5648 8.82216 74.88 13.2766C72.4224 15.7342 70.2336 17.9998 68.3136 20.0734C66.4704 22.0702 63.9744 25.1038 60.8256 29.1742C56.832 34.3198 51.84 40.9246 45.8496 48.9886C48.9216 51.0622 54.6816 62.0062 63.1296 81.8206C66.2016 89.0398 69.6192 95.6062 73.3824 101.52C77.1456 107.433 80.448 110.39 83.2896 110.39ZM42.2784 4.75176C43.5072 4.75176 44.1216 5.36616 44.1216 6.59496C38.1312 20.419 33.1776 39.7342 29.2608 64.5406C27.7248 74.6014 26.9568 81.859 26.9568 86.3134C26.9568 87.3118 26.4192 87.811 25.344 87.811C23.04 87.811 21.888 84.739 21.888 78.595C21.888 63.7726 23.5392 49.3726 26.8416 35.395C30.2208 21.4174 33.9456 12.0862 38.016 7.40136C27.0336 8.93736 18.1248 12.8158 11.2896 19.0366C7.3728 22.4926 5.4144 26.2558 5.4144 30.3262C5.4144 32.323 6.1824 33.3214 7.7184 33.3214C7.4112 34.3966 6.5664 34.9342 5.184 34.9342C3.8016 34.9342 2.5728 34.3966 1.4976 33.3214C0.4992 32.2462 0 30.7486 0 28.8286C0 24.2974 2.7264 20.1118 8.1792 16.2718C13.7088 12.355 19.6608 9.47496 26.0352 7.63176C32.4096 5.71176 37.824 4.75176 42.2784 4.75176Z" fill="white"/>
<path d="M90.2477 91.0366C80.8013 91.0366 76.0781 84.547 76.0781 71.5678C76.0781 64.2718 77.9213 56.9758 81.6077 49.6798C86.2925 40.4638 91.8605 35.8558 98.3117 35.8558C99.2333 35.8558 100.001 36.0862 100.616 36.547C101.23 37.0078 101.653 37.699 101.883 38.6206C97.0445 38.6206 92.8589 42.499 89.3261 50.2558C85.7933 58.0126 84.0269 65.6542 84.0269 73.1806C84.0269 82.3198 86.5229 86.8894 91.5149 86.8894C94.3565 86.8894 97.3133 84.739 100.385 80.4382C103.457 76.0606 105.992 70.339 107.989 63.2734C110.062 56.2078 111.099 49.1038 111.099 41.9614V40.579C108.718 39.043 106.76 37.123 105.224 34.819C103.688 32.515 102.92 30.8254 102.92 29.7502C102.92 28.675 103.381 27.6766 104.302 26.755C105.301 25.7566 106.299 25.2574 107.297 25.2574C108.757 25.2574 110.177 26.563 111.56 29.1742C112.942 31.7854 113.902 34.7422 114.44 38.0446C116.821 39.6574 118.894 40.4638 120.661 40.4638C122.504 40.4638 123.963 40.1566 125.038 39.5422C125.038 40.6174 124.654 41.5774 123.886 42.4222C123.118 43.267 121.928 43.6894 120.315 43.6894C118.702 43.6894 116.859 43.3054 114.785 42.5374C114.709 49.9102 113.595 57.3214 111.445 64.771C109.294 72.2206 106.299 78.4798 102.459 83.5486C98.6189 88.5406 94.5485 91.0366 90.2477 91.0366Z" fill="white"/>
<path d="M153.792 34.1278C159.629 34.1278 162.547 37.5454 162.547 44.3806C162.547 48.2974 161.241 52.4062 158.63 56.707C154.176 63.8494 148.262 67.4206 140.889 67.4206C139.737 67.4206 138.777 67.2286 138.009 66.8446C137.241 66.4606 136.665 65.8846 136.281 65.1166C141.734 65.1166 146.726 61.9678 151.257 55.6702C154.944 50.6014 156.787 45.955 156.787 41.731C156.787 38.5822 155.52 37.0078 152.985 37.0078C147.917 37.0078 143.193 40.963 138.816 48.8734C134.131 57.475 131.789 66.307 131.789 75.3694C131.789 83.0494 133.977 87.6574 138.355 89.1934C139.2 89.5006 140.275 89.6542 141.581 89.6542C142.886 89.6542 144.269 89.347 145.728 88.7326C147.187 88.0414 148.416 87.235 149.414 86.3134C151.411 84.4702 153.062 82.435 154.368 80.2078C154.675 79.5934 155.251 79.2862 156.096 79.2862C157.478 79.2862 158.131 79.5166 158.054 79.9774C157.824 80.8222 156.941 82.243 155.405 84.2398C153.945 86.2366 152.563 87.8494 151.257 89.0782C150.029 90.2302 148.377 91.267 146.304 92.1886C144.307 93.187 142.272 93.6862 140.198 93.6862C132.057 93.6862 126.873 89.8462 124.646 82.1662C123.955 79.555 123.609 76.867 123.609 74.1022C123.609 68.9566 124.8 63.3502 127.181 57.283C130.944 48.067 136.128 41.4238 142.733 37.3534C146.342 35.203 150.029 34.1278 153.792 34.1278Z" fill="white"/>
<path d="M177.339 71.3374C187.246 46.8382 196.885 34.5886 206.254 34.5886C210.171 34.5886 212.13 36.4702 212.13 40.2334C211.592 41.9998 210.901 44.3422 210.056 47.2606C209.211 50.1022 208.059 55.2478 206.6 62.6974C205.218 70.147 204.526 76.675 204.526 82.2814C204.526 90.4222 205.717 94.4926 208.098 94.4926C209.019 94.4926 209.902 94.1086 210.747 93.3406C211.592 92.6494 212.168 92.3038 212.475 92.3038C213.55 92.3038 213.55 93.1486 212.475 94.8382C212.091 95.3758 211.362 96.1054 210.286 97.027C209.288 97.9486 208.251 98.4094 207.176 98.4094C204.258 98.4094 201.954 96.2974 200.264 92.0734C198.651 87.9262 197.845 82.5118 197.845 75.8302C197.845 65.2318 199.496 53.5966 202.798 40.9246C203.106 39.9262 202.798 39.427 201.877 39.427C201.262 39.427 200.571 39.7342 199.803 40.3486C196.117 43.5742 192.238 48.9118 188.168 56.3614C184.098 63.811 180.91 70.4926 178.606 76.4062C176.302 82.243 175.15 85.6606 175.15 86.659C175.15 87.5806 174.613 88.0414 173.538 88.0414C171.08 88.0414 169.851 85.0078 169.851 78.9406C169.851 67.4974 171.003 57.1294 173.307 47.8366C175.688 38.5438 178.53 33.8974 181.832 33.8974C183.214 33.8974 183.906 34.7422 183.906 36.4318C180.373 47.875 177.838 59.5102 176.302 71.3374H177.339Z" fill="white"/>
<path d="M223.073 80.2078C223.073 68.8414 224.225 58.7038 226.529 49.795C228.91 40.8862 231.905 36.4318 235.515 36.4318C237.281 36.4318 238.165 37.3918 238.165 39.3118C237.397 41.3086 236.437 43.9582 235.285 47.2606C234.133 50.563 232.597 56.5534 230.677 65.2318C228.833 73.8334 227.912 81.5134 227.912 88.2718C227.912 89.347 227.336 89.8846 226.184 89.8846C224.11 89.8846 223.073 86.659 223.073 80.2078ZM238.51 25.603C236.897 25.603 236.091 24.067 236.091 20.995C236.091 19.1518 236.59 17.2318 237.589 15.235C238.587 13.1614 240.008 12.1246 241.851 12.1246C243.387 12.1246 244.155 13.0078 244.155 14.7742C244.155 16.5406 242.734 19.4974 239.893 23.6446L238.51 25.603Z" fill="white"/>
<path d="M255.042 89.9998C248.744 89.9998 245.596 85.0462 245.596 75.139C245.596 69.2254 247.055 62.7358 249.973 55.6702C254.044 45.763 259.381 39.0046 265.986 35.395C268.828 33.859 271.477 33.091 273.935 33.091C276.392 33.091 278.312 33.6286 279.695 34.7038C281.154 35.779 282.076 36.8542 282.46 37.9294L283.151 39.427C282.92 40.7326 282.268 41.3854 281.192 41.3854C279.964 41.3854 279.234 41.1166 279.004 40.579C278.85 39.9646 278.658 39.4654 278.428 39.0814C278.197 38.6206 277.66 38.0446 276.815 37.3534C275.97 36.5854 275.01 36.2014 273.935 36.2014C268.943 36.2014 264.412 40.6942 260.341 49.6798C255.733 60.0478 253.429 69.8014 253.429 78.9406C253.429 83.5486 254.351 85.8526 256.194 85.8526C258.728 85.8526 262.799 81.4366 268.405 72.6046C274.088 63.6958 279.196 54.595 283.727 45.3022C286.031 40.6174 288.45 38.275 290.984 38.275C292.597 38.275 293.404 39.1966 293.404 41.0398C293.096 41.5774 292.636 42.4606 292.021 43.6894C291.407 44.9182 290.293 48.451 288.68 54.2878C287.068 60.0478 285.608 66.691 284.303 74.2174C282.997 81.667 281.884 87.5038 280.962 91.7278C286.799 92.7262 290.178 95.2606 291.1 99.331C291.253 100.022 291.33 100.944 291.33 102.096C291.33 103.325 290.869 104.361 289.948 105.206C289.026 106.128 288.22 106.589 287.528 106.589C287.682 106.051 287.72 105.091 287.644 103.709C287.567 102.403 287.298 101.289 286.837 100.368C286.453 99.4462 285.685 98.4862 284.533 97.4878C283.381 96.4894 281.884 95.7598 280.04 95.299C277.66 104.669 274.242 112.387 269.788 118.454C264.719 125.289 257.884 128.707 249.282 128.707C242.984 128.707 238.799 126.48 236.725 122.025C236.648 121.795 236.61 121.603 236.61 121.449C236.61 120.989 237.032 120.643 237.877 120.413C238.722 120.259 239.298 120.566 239.605 121.334C240.988 124.483 244.213 126.057 249.282 126.057C256.194 126.057 261.57 122.793 265.41 116.265C268.866 110.505 271.516 103.325 273.359 94.723C259.535 95.0302 248.86 100.329 241.333 110.621C240.872 111.312 240.143 111.427 239.144 110.966C238.607 110.659 238.453 110.275 238.684 109.814C241.986 104.822 246.594 100.56 252.508 97.027C258.421 93.571 265.602 91.6894 274.05 91.3822C274.895 87.5422 275.624 83.5102 276.239 79.2862C276.93 74.9854 277.506 71.6062 277.967 69.1486C278.428 66.691 278.735 64.9246 278.888 63.8494H277.621C267.484 81.283 259.957 89.9998 255.042 89.9998Z" fill="white"/>
<path d="M306.701 86.083C306.701 91.459 308.429 94.147 311.885 94.147C315.11 94.147 318.105 91.4974 320.87 86.1982C323.712 80.899 325.133 74.2174 325.133 66.1534C325.133 62.2366 324.403 56.707 322.944 49.5646C321.561 42.4222 320.87 37.7758 320.87 35.6254C320.87 33.3982 320.947 31.939 321.101 31.2478C320.102 32.8606 317.222 38.2366 312.461 47.3758C307.699 56.4382 303.475 63.619 299.789 68.9182C299.481 69.2254 299.059 69.3406 298.521 69.2638C297.984 69.1102 297.561 68.8798 297.254 68.5726C296.87 68.1886 296.678 67.9198 296.678 67.7662C296.678 67.6126 296.717 67.4974 296.793 67.4206C300.403 62.1982 304.589 55.0174 309.35 45.8782C314.189 36.6622 318.221 29.7886 321.446 25.2574C324.672 20.7262 327.859 18.4606 331.008 18.4606C332.621 18.4606 333.427 19.1518 333.427 20.5342C333.427 21.4558 332.774 22.6846 331.469 24.2206C327.321 28.9054 325.248 33.7054 325.248 38.6206C325.248 41.539 326.361 47.1838 328.589 55.555C330.816 63.8494 331.929 69.8782 331.929 73.6414C331.929 80.3998 330.048 86.1214 326.285 90.8062C322.521 95.5678 318.259 97.9486 313.497 97.9486C306.739 97.9486 303.36 94.0702 303.36 86.3134C303.36 80.4766 305.126 74.371 308.659 67.9966C312.269 61.6222 315.878 57.3214 319.488 55.0942C320.179 54.6334 320.601 54.9022 320.755 55.9006C320.985 56.899 320.87 57.5518 320.409 57.859C316.339 60.163 312.806 65.0782 309.811 72.6046C307.737 77.9038 306.701 82.3966 306.701 86.083Z" fill="white"/>
<path d="M370.224 75.9454C370.224 66.499 371.952 54.5566 375.408 40.1182C375.638 39.3502 375.408 39.0046 374.717 39.0814C374.179 39.1582 373.68 39.3886 373.219 39.7726C369.84 42.6142 366.115 47.875 362.045 55.555C357.974 63.235 354.71 70.2622 352.253 76.6366C349.795 82.9342 348.566 86.6206 348.566 87.6958C348.566 88.6174 347.99 89.0782 346.838 89.0782C344.534 89.0782 343.382 86.0446 343.382 79.9774C343.382 68.4574 344.534 58.0894 346.838 48.8734C349.142 39.5806 351.946 34.9342 355.248 34.9342C356.707 34.9342 357.437 35.7406 357.437 37.3534C353.904 48.4894 351.37 59.9326 349.834 71.683H350.87C361.008 46.339 370.339 33.667 378.864 33.667C382.55 33.667 384.394 35.4718 384.394 39.0814C380.784 49.8334 378.173 60.4318 376.56 70.8766H377.482C380.016 65.5006 382.55 60.6238 385.085 56.2462C387.696 51.7918 390.73 47.683 394.186 43.9198C397.642 40.0798 400.752 38.1598 403.517 38.1598C407.203 38.1598 409.046 39.9262 409.046 43.459C405.053 56.7454 403.056 69.6862 403.056 82.2814C403.056 90.4222 404.285 94.4926 406.742 94.4926C407.587 94.4926 408.432 94.1086 409.277 93.3406C410.122 92.6494 410.698 92.3038 411.005 92.3038C412.08 92.3038 412.042 93.1486 410.89 94.8382C410.582 95.3758 409.891 96.1054 408.816 97.027C407.818 97.9486 406.819 98.4094 405.821 98.4094C402.826 98.4094 400.483 96.2974 398.794 92.0734C397.181 87.9262 396.374 82.5118 396.374 75.8302C396.374 64.0798 397.603 53.7502 400.061 44.8414C400.214 44.3038 400.022 44.035 399.485 44.035C399.024 44.1118 398.563 44.3422 398.102 44.7262C393.725 48.4894 388.848 55.4782 383.472 65.6926C378.096 75.8302 375.408 81.8206 375.408 83.6638C375.408 84.5854 374.794 85.0462 373.565 85.0462C371.338 85.0462 370.224 82.0126 370.224 75.9454Z" fill="white"/>
<path d="M428.317 89.9998C422.02 89.9998 418.871 85.0462 418.871 75.139C418.871 69.2254 420.33 62.7358 423.249 55.6702C427.319 45.763 432.657 39.0046 439.261 35.395C442.103 33.859 444.753 33.091 447.21 33.091C449.668 33.091 451.588 33.6286 452.97 34.7038C454.429 35.779 455.351 36.8542 455.735 37.9294L456.426 39.427C456.196 40.7326 455.543 41.3854 454.468 41.3854C453.239 41.3854 452.509 41.1166 452.279 40.579C452.125 39.9646 451.933 39.4654 451.703 39.0814C451.473 38.6206 450.935 38.0446 450.09 37.3534C449.245 36.5854 448.285 36.2014 447.21 36.2014C442.218 36.2014 437.687 40.6942 433.617 49.6798C429.009 60.0478 426.705 69.8014 426.705 78.9406C426.705 83.5486 427.626 85.8526 429.469 85.8526C430.929 85.8526 432.964 84.2398 435.575 81.0142C438.263 77.7118 441.066 73.603 443.985 68.6878C449.053 60.2398 453.162 52.9054 456.311 46.6846C458.922 41.155 461.61 38.3902 464.375 38.3902C465.834 38.3902 466.564 39.2734 466.564 41.0398C465.873 42.499 464.989 44.5726 463.914 47.2606C462.839 49.9486 461.418 55.2862 459.652 63.2734C457.885 71.2606 457.002 79.2094 457.002 87.1198C457.002 95.0302 458.193 98.9854 460.573 98.9854C461.495 98.9854 462.34 98.563 463.108 97.7182C463.876 96.9502 464.567 95.7598 465.181 94.147C465.412 93.3022 465.949 92.8798 466.794 92.8798C467.101 92.8798 467.332 92.995 467.485 93.2254C467.639 93.4558 467.639 93.8398 467.485 94.3774C467.332 94.915 467.063 95.6446 466.679 96.5662C466.295 97.5646 465.45 98.8702 464.145 100.483C462.916 102.096 461.61 102.902 460.228 102.902C457.002 102.902 454.506 100.79 452.74 96.5662C451.05 92.3422 450.205 87.3502 450.205 81.5902C450.205 75.8302 450.628 70.3006 451.473 65.0014H450.321C440.567 81.667 433.233 89.9998 428.317 89.9998Z" fill="white"/>
<path d="M482.636 71.3374C492.543 46.8382 502.182 34.5886 511.551 34.5886C515.468 34.5886 517.426 36.4702 517.426 40.2334C516.889 41.9998 516.198 44.3422 515.353 47.2606C514.508 50.1022 513.356 55.2478 511.897 62.6974C510.514 70.147 509.823 76.675 509.823 82.2814C509.823 90.4222 511.014 94.4926 513.394 94.4926C514.316 94.4926 515.199 94.1086 516.044 93.3406C516.889 92.6494 517.465 92.3038 517.772 92.3038C518.847 92.3038 518.847 93.1486 517.772 94.8382C517.388 95.3758 516.658 96.1054 515.583 97.027C514.585 97.9486 513.548 98.4094 512.473 98.4094C509.554 98.4094 507.25 96.2974 505.561 92.0734C503.948 87.9262 503.142 82.5118 503.142 75.8302C503.142 65.2318 504.793 53.5966 508.095 40.9246C508.402 39.9262 508.095 39.427 507.174 39.427C506.559 39.427 505.868 39.7342 505.1 40.3486C501.414 43.5742 497.535 48.9118 493.465 56.3614C489.394 63.811 486.207 70.4926 483.903 76.4062C481.599 82.243 480.447 85.6606 480.447 86.659C480.447 87.5806 479.91 88.0414 478.834 88.0414C476.377 88.0414 475.148 85.0078 475.148 78.9406C475.148 67.4974 476.3 57.1294 478.604 47.8366C480.985 38.5438 483.826 33.8974 487.129 33.8974C488.511 33.8974 489.202 34.7422 489.202 36.4318C485.67 47.875 483.135 59.5102 481.599 71.3374H482.636Z" fill="white"/>
<path d="M534.245 71.3374C544.153 46.8382 553.791 34.5886 563.161 34.5886C567.077 34.5886 569.036 36.4702 569.036 40.2334C568.498 41.9998 567.807 44.3422 566.962 47.2606C566.117 50.1022 564.965 55.2478 563.506 62.6974C562.124 70.147 561.433 76.675 561.433 82.2814C561.433 90.4222 562.623 94.4926 565.004 94.4926C565.925 94.4926 566.809 94.1086 567.653 93.3406C568.498 92.6494 569.074 92.3038 569.381 92.3038C570.457 92.3038 570.457 93.1486 569.381 94.8382C568.997 95.3758 568.268 96.1054 567.193 97.027C566.194 97.9486 565.157 98.4094 564.082 98.4094C561.164 98.4094 558.86 96.2974 557.17 92.0734C555.557 87.9262 554.751 82.5118 554.751 75.8302C554.751 65.2318 556.402 53.5966 559.705 40.9246C560.012 39.9262 559.705 39.427 558.783 39.427C558.169 39.427 557.477 39.7342 556.709 40.3486C553.023 43.5742 549.145 48.9118 545.074 56.3614C541.004 63.811 537.817 70.4926 535.513 76.4062C533.209 82.243 532.057 85.6606 532.057 86.659C532.057 87.5806 531.519 88.0414 530.444 88.0414C527.986 88.0414 526.757 85.0078 526.757 78.9406C526.757 67.4974 527.909 57.1294 530.213 47.8366C532.594 38.5438 535.436 33.8974 538.738 33.8974C540.121 33.8974 540.812 34.7422 540.812 36.4318C537.279 47.875 534.745 59.5102 533.209 71.3374H534.245Z" fill="white"/>
<path d="M648.562 0.950163C652.632 0.950163 658.047 1.87176 664.805 3.71496C671.564 5.48136 675.941 6.36456 677.938 6.36456C680.012 6.36456 682.2 5.44296 684.504 3.59977C686.808 1.75656 688.844 0.834961 690.61 0.834961C691.301 0.834961 691.839 1.21896 692.223 1.98696C692.684 2.75496 692.876 3.48457 692.799 4.17577C692.722 4.79016 692.684 5.13576 692.684 5.21256C690.226 5.21256 687.346 8.16936 684.044 14.083C681.586 18.3838 678.591 24.259 675.058 31.7086C671.602 39.0814 669.144 44.2654 667.685 47.2606C671.679 47.107 674.367 47.0302 675.749 47.0302C676.517 47.0302 676.824 47.491 676.671 48.4126C676.594 49.3342 676.018 49.795 674.943 49.795C673.944 49.795 673.023 49.8334 672.178 49.9102C671.41 49.987 670.373 50.0638 669.068 50.1406C667.839 50.2174 666.84 50.2942 666.072 50.371C656.319 69.6478 646.796 82.7422 637.503 89.6542C639.884 90.7294 644.952 93.187 652.709 97.027C660.543 100.867 666.648 103.593 671.026 105.206C675.404 106.896 678.783 107.741 681.164 107.741C683.544 107.741 685.426 107.51 686.808 107.049C688.191 106.665 689.266 106.166 690.034 105.552C691.57 104.323 692.607 102.979 693.144 101.52C694.373 101.52 694.988 102.48 694.988 104.4C694.988 107.625 693.567 110.198 690.725 112.118C687.884 114.115 684.62 115.113 680.933 115.113C677.247 115.113 673.1 114.269 668.492 112.579C663.884 110.889 660.082 109.238 657.087 107.625C654.168 106.013 649.752 103.401 643.839 99.7918C638.002 96.1822 634.239 93.8782 632.549 92.8798C627.864 95.3374 623.295 96.5662 618.84 96.5662C612.389 96.5662 608.242 94.8766 606.399 91.4974C605.861 90.5758 605.592 89.5774 605.592 88.5022C605.592 87.3502 606.322 86.1214 607.781 84.8158C609.24 83.4334 611.813 82.7422 615.5 82.7422C619.263 82.7422 624.946 84.355 632.549 87.5806C639.538 81.667 647.64 69.6478 656.856 51.523C653.17 51.9838 649.906 52.2142 647.064 52.2142C644.3 52.2142 642.764 51.2926 642.456 49.4494C642.533 48.2974 642.994 47.6062 643.839 47.3758C644.223 47.8366 645.759 48.067 648.447 48.067C651.135 48.067 654.591 47.9518 658.815 47.7214C659.967 45.4942 661.695 42.0766 663.999 37.4686C666.303 32.7838 668.108 29.1742 669.413 26.6398C672.792 19.8046 675.941 14.3134 678.86 10.1662C677.17 10.5502 675.327 10.7422 673.33 10.7422C671.41 10.7422 667.032 9.82056 660.197 7.97736C653.362 6.13416 648.216 5.21256 644.76 5.21256C636.005 5.21256 629.823 8.82216 626.213 16.0414C624.37 19.651 623.448 22.9534 623.448 25.9486C623.448 28.867 623.717 31.4014 624.255 33.5518C625.637 38.7742 628.133 41.8078 631.743 42.6526L633.586 42.883C633.202 44.6494 631.935 45.5326 629.784 45.5326C625.253 45.5326 621.989 42.9214 619.992 37.699C619.071 35.0878 618.61 32.2462 618.61 29.1742C618.61 26.1022 619.301 22.723 620.684 19.0366C623.756 11.0494 629.247 5.67336 637.157 2.90856C640.767 1.60296 644.568 0.950163 648.562 0.950163ZM608.818 88.963C608.818 90.3454 609.778 91.4206 611.698 92.1886C613.618 93.0334 616.037 93.4558 618.956 93.4558C621.874 93.4558 625.023 92.4574 628.402 90.4606C621.797 87.235 617.036 85.6222 614.117 85.6222C611.276 85.6222 609.548 86.4286 608.933 88.0414C608.856 88.3486 608.818 88.6558 608.818 88.963Z" fill="white"/>
<path d="M714.885 34.1278C720.722 34.1278 723.641 37.5454 723.641 44.3806C723.641 48.2974 722.335 52.4062 719.724 56.707C715.27 63.8494 709.356 67.4206 701.983 67.4206C700.831 67.4206 699.871 67.2286 699.103 66.8446C698.335 66.4606 697.759 65.8846 697.375 65.1166C702.828 65.1166 707.82 61.9678 712.351 55.6702C716.038 50.6014 717.881 45.955 717.881 41.731C717.881 38.5822 716.614 37.0078 714.079 37.0078C709.01 37.0078 704.287 40.963 699.91 48.8734C695.225 57.475 692.882 66.307 692.882 75.3694C692.882 83.0494 695.071 87.6574 699.449 89.1934C700.294 89.5006 701.369 89.6542 702.674 89.6542C703.98 89.6542 705.362 89.347 706.822 88.7326C708.281 88.0414 709.51 87.235 710.508 86.3134C712.505 84.4702 714.156 82.435 715.462 80.2078C715.769 79.5934 716.345 79.2862 717.19 79.2862C718.572 79.2862 719.225 79.5166 719.148 79.9774C718.918 80.8222 718.034 82.243 716.498 84.2398C715.039 86.2366 713.657 87.8494 712.351 89.0782C711.122 90.2302 709.471 91.267 707.398 92.1886C705.401 93.187 703.366 93.6862 701.292 93.6862C693.151 93.6862 687.967 89.8462 685.74 82.1662C685.049 79.555 684.703 76.867 684.703 74.1022C684.703 68.9566 685.894 63.3502 688.274 57.283C692.038 48.067 697.222 41.4238 703.826 37.3534C707.436 35.203 711.122 34.1278 714.885 34.1278Z" fill="white"/>
<path d="M738.433 71.3374C748.34 46.8382 757.978 34.5886 767.348 34.5886C771.265 34.5886 773.223 36.4702 773.223 40.2334C772.686 41.9998 771.995 44.3422 771.15 47.2606C770.305 50.1022 769.153 55.2478 767.694 62.6974C766.311 70.147 765.62 76.675 765.62 82.2814C765.62 90.4222 766.81 94.4926 769.191 94.4926C770.113 94.4926 770.996 94.1086 771.841 93.3406C772.686 92.6494 773.262 92.3038 773.569 92.3038C774.644 92.3038 774.644 93.1486 773.569 94.8382C773.185 95.3758 772.455 96.1054 771.38 97.027C770.382 97.9486 769.345 98.4094 768.27 98.4094C765.351 98.4094 763.047 96.2974 761.358 92.0734C759.745 87.9262 758.938 82.5118 758.938 75.8302C758.938 65.2318 760.59 53.5966 763.892 40.9246C764.199 39.9262 763.892 39.427 762.971 39.427C762.356 39.427 761.665 39.7342 760.897 40.3486C757.211 43.5742 753.332 48.9118 749.262 56.3614C745.191 63.811 742.004 70.4926 739.7 76.4062C737.396 82.243 736.244 85.6606 736.244 86.659C736.244 87.5806 735.706 88.0414 734.631 88.0414C732.174 88.0414 730.945 85.0078 730.945 78.9406C730.945 67.4974 732.097 57.1294 734.401 47.8366C736.782 38.5438 739.623 33.8974 742.926 33.8974C744.308 33.8974 744.999 34.7422 744.999 36.4318C741.467 47.875 738.932 59.5102 737.396 71.3374H738.433Z" fill="white"/>
</svg>
