<svg width="308" height="48" viewBox="0 0 308 48" fill="none" xmlns="http://www.w3.org/2000/svg">
<path d="M190.454 16.084H183.494V19.5669H187.132C187.648 19.5789 187.808 19.7332 187.923 20.2001V21.3083H192.826V18.4586C192.826 17.0338 191.561 16.084 190.454 16.084Z" fill="white"/>
<path d="M175.991 32.535H183.584V29.0521H179.313C178.797 29.0401 178.637 28.8858 178.522 28.4189V27.1523H173.776V30.1603C173.776 31.5852 174.884 32.535 175.991 32.535Z" fill="white"/>
<path d="M176.624 16.0703L183.494 16.0832V19.566L179.945 19.5532C179.429 19.5653 179.269 19.7195 179.154 20.1865V21.2947H174.251V18.445C174.251 17.0202 175.516 16.0703 176.624 16.0703Z" fill="white"/>
<path d="M177.573 26.0447H183.584V22.4035H179.945C179.429 22.3914 179.269 22.2371 179.154 21.7702V20.8203H174.251V23.0367C174.251 24.4616 176.149 26.0447 177.573 26.0447Z" fill="white"/>
<path d="M189.753 22.4023H183.743V26.0436H187.38C187.897 26.0557 188.057 26.2098 188.172 26.6768V27.6267H193.075V25.4103C193.075 23.9855 191.177 22.4023 189.753 22.4023Z" fill="white"/>
<path d="M189.753 32.5348H183.584V29.052H187.38C187.897 29.0399 188.057 28.8856 188.172 28.4187V27.4688H193.075V29.6852C193.075 31.11 191.177 32.5348 189.753 32.5348Z" fill="white"/>
<path d="M190.454 16.084H183.494V19.5669H187.132C187.648 19.5789 187.808 19.7332 187.923 20.2001V21.3083H192.826V18.4586C192.826 17.0338 191.561 16.084 190.454 16.084Z" fill="white"/>
<path d="M157.958 23.0371V26.8367H169.031V23.0371H157.958Z" fill="white"/>
<path d="M147.993 21.9277V26.5188H152.896V21.9277H147.993Z" fill="white"/>
<path d="M164.127 21.928H169.031V19.0783C169.009 16.8991 168.371 16.0646 165.709 16.0703H159.381V20.0281H161.913C164.127 20.0281 164.089 20.2492 164.127 21.928Z" fill="white"/>
<path d="M164.127 26.6777H169.031V29.5274C169.009 31.7066 168.371 32.541 165.709 32.5354H159.381V28.5776H161.913C164.127 28.5776 164.089 28.3565 164.127 26.6777Z" fill="white"/>
<path d="M152.896 21.928H147.993V19.0783C148.014 16.8991 148.652 16.0646 151.314 16.0703H159.54V20.0281H155.111C152.896 20.0281 152.934 20.2492 152.896 21.928Z" fill="white"/>
<path d="M152.896 26.6777H147.993V29.5274C148.014 31.7066 148.652 32.541 151.314 32.5354H159.54V28.5776H155.111C152.896 28.5776 152.934 28.3565 152.896 26.6777Z" fill="white"/>
<path d="M235.937 16.0703L227.876 32.535H233.887L235.454 29.6295H240.45V25.4326H237.227L240.128 19.4601H240.45V16.0703H235.937Z" fill="white"/>
<path d="M245.124 16.0703L253.185 32.535H247.175L245.608 29.6295H240.611V25.4326H243.835L240.934 19.4601H240.611V16.0703H245.124Z" fill="white"/>
<path d="M64.1534 20.0284V23.9862H69.2153V20.7786C69.2153 20.1867 69.5318 19.8701 70.1644 19.8701H75.0679V15.7539H67.4753C65.8934 15.7539 64.1524 17.9157 64.1534 20.0284Z" fill="white"/>
<path d="M64.1534 28.2609V23.8281H69.2153V27.5107C69.2153 28.1026 69.5318 28.4193 70.1644 28.4193H75.0679V32.5354H67.4753C65.8934 32.5354 64.1524 30.3736 64.1534 28.2609Z" fill="white"/>
<path d="M85.5082 20.0284V23.9862H80.4463V20.7786C80.4463 20.1867 80.1298 19.8701 79.4976 19.8701H74.5937V15.7539H82.1869C83.7682 15.7539 85.5096 17.9157 85.5082 20.0284Z" fill="white"/>
<path d="M85.5082 28.2609V23.8281H80.4463V27.5107C80.4463 28.1026 80.1298 28.4193 79.4976 28.4193H74.5937V32.5354H82.1869C83.7682 32.5354 85.5096 30.3736 85.5082 28.2609Z" fill="white"/>
<path d="M138.975 16.0703V32.535H143.721V16.0703H138.975Z" fill="white"/>
<path d="M89.4634 16.0703V32.535H107.181V28.7355H94.3673V26.2024H106.705V22.4029H94.5254V19.8699H107.022V16.0703H89.4634Z" fill="white"/>
<path d="M38.8436 16.0703V32.535H43.9056V26.2024H46.9111L53.2385 32.535H60.0404L51.182 24.1444V23.8277L59.2495 16.0703H52.6059L46.9111 21.7696H43.9056V16.0703H38.8436Z" fill="white"/>
<path d="M183.494 16.0834H190.453C191.56 16.0834 192.826 17.0333 192.826 18.4581V21.3077H187.923V20.1995C187.808 19.7326 187.648 19.5783 187.131 19.5663H183.494V16.0834ZM183.494 16.0834V19.5663V16.0834ZM183.494 16.0834L176.624 16.0705C175.516 16.0705 174.251 17.0204 174.251 18.4453V21.2949H179.154V20.1867C179.269 19.7197 179.429 19.5655 179.945 19.5534L183.494 19.5663V16.0834ZM183.584 32.5352H175.991C174.883 32.5352 173.776 31.5853 173.776 30.1605V27.1525H178.522V28.419C178.636 28.886 178.797 29.0402 179.313 29.0523H183.584V32.5352ZM183.584 32.5352V29.0523V32.5352ZM183.584 32.5352H189.753C191.177 32.5352 193.075 31.1103 193.075 29.6856V27.4691H188.171V28.419C188.056 28.886 187.897 29.0402 187.38 29.0523H183.584V32.5352ZM147.992 21.9282V26.5193H152.896V21.9282H147.992ZM147.992 21.9282H152.896H147.992ZM147.992 21.9282V19.0785C148.014 16.8993 148.652 16.0649 151.313 16.0706H159.54V20.0284H155.111C152.896 20.0284 152.933 20.2494 152.896 21.9282H147.992ZM183.584 26.0444H177.573C176.149 26.0444 174.251 24.4612 174.251 23.0364V20.82H179.154V21.7698C179.269 22.2368 179.429 22.391 179.945 22.4031H183.584V26.0444ZM183.742 22.4031H189.753C191.177 22.4031 193.075 23.9862 193.075 25.4111V27.6275H188.171V26.6776C188.056 26.2106 187.897 26.0564 187.38 26.0444H183.742V22.4031ZM157.958 26.8359V23.0364H169.031V26.8359H157.958ZM169.031 21.9282H164.127C164.089 20.2494 164.127 20.0284 161.912 20.0284H159.381V16.0706H165.709C168.371 16.0649 169.009 16.8993 169.031 19.0785V21.9282ZM169.031 26.6776H164.127C164.089 28.3564 164.127 28.5774 161.912 28.5774H159.381V32.5353H165.709C168.371 32.5409 169.009 31.7064 169.031 29.5273V26.6776ZM147.992 26.6776H152.896C152.933 28.3564 152.896 28.5774 155.111 28.5774H159.54V32.5353H151.313C148.652 32.5409 148.014 31.7064 147.992 29.5273V26.6776ZM227.876 32.5352L235.937 16.0705H240.45V19.4603H240.128L237.227 25.4328H240.45V29.6297H235.454L233.887 32.5352H227.876ZM253.185 32.5352L245.124 16.0705H240.611V19.4603H240.934L243.834 25.4328H240.611V29.6297H245.608L247.175 32.5352H253.185ZM64.1533 23.9862V20.0284C64.1523 17.9157 65.8933 15.7539 67.4753 15.7539H75.0679V19.8701H70.1647C69.5317 19.8701 69.2153 20.1867 69.2153 20.7786V23.9862H64.1533ZM64.1533 23.828V28.2607C64.1523 30.3734 65.8933 32.5352 67.4753 32.5352H75.0679V28.419H70.1647C69.5317 28.419 69.2153 28.1024 69.2153 27.5104V23.828H64.1533ZM85.5082 23.9862V20.0284C85.5096 17.9157 83.7682 15.7539 82.1869 15.7539H74.5937V19.8701H79.4976C80.1298 19.8701 80.4463 20.1867 80.4463 20.7786V23.9862H85.5082ZM85.5082 23.828V28.2607C85.5096 30.3734 83.7682 32.5352 82.1869 32.5352H74.5937V28.419H79.4976C80.1298 28.419 80.4463 28.1024 80.4463 27.5104V23.828H85.5082ZM138.975 32.5352V16.0705H143.721V32.5352H138.975ZM89.463 16.0705H107.022V19.8701H94.525V22.4031H106.705V26.2026H94.3673V28.7357H107.18V32.5352H89.463V16.0705ZM38.8436 32.5352V16.0705H43.9056V21.7698H46.9111L52.6059 16.0705H59.2495L51.182 23.828V24.1446L60.0404 32.5352H53.2385L46.9111 26.2026H43.9056V32.5352H38.8436Z" stroke="white" stroke-width="0.35893"/>
<path d="M197.663 16.0703V32.535H202.566V19.0838L209.368 32.535H213.481L219.967 19.0512V32.535H224.871V16.0703H216.17L211.899 25.2525V26.8356H210.95V25.2525L206.837 16.0703H197.663Z" fill="white" stroke="white" stroke-width="0.35893"/>
<path d="M112.243 16.0703V32.535H117.146V19.4103L126.321 32.535H134.546V16.0703H129.643V29.2104L120.468 16.0703H112.243Z" fill="white" stroke="white" stroke-width="0.35893"/>
<path d="M256.549 16.0801V32.5447H261.453V19.4201L270.627 32.5447H278.853V16.0801H273.949V29.2201L264.774 16.0801H256.549Z" fill="white" stroke="white" stroke-width="0.35893"/>
<path d="M284.21 16.0801V32.5447H289.114V19.4201L298.289 32.5447H306.514V16.0801H301.611V29.2201L292.436 16.0801H284.21Z" fill="white" stroke="white" stroke-width="0.35893"/>
<path d="M11.7706 23.8012C11.7706 24.7512 11.5747 25.1804 11.1378 25.5429C10.8726 25.5584 10.7011 25.4283 10.3468 24.9096C10.2779 25.2234 10.0605 25.3498 9.55589 25.5429C9.79544 24.8898 9.85544 24.59 9.71408 24.2762C9.71408 24.2762 9.39766 23.8012 9.39766 23.6429C9.39766 23.4846 9.82942 22.7836 9.71408 22.2179C9.63488 21.9023 9.56226 21.7295 9.39766 21.4262C9.16664 21.1551 9.00029 21.0144 8.60669 20.7929C8.11565 20.5979 7.84822 20.4889 7.81575 20.3179C7.76113 20.0876 7.74197 19.9549 7.81575 19.6845L8.13214 19.2096C8.28605 18.7363 8.2101 18.5791 7.65752 18.5762C7.26334 18.5644 7.0939 18.5402 7.02478 18.4179C6.89298 18.1378 6.86175 17.9914 7.02478 17.7845C7.13432 17.668 7.23224 17.5993 7.49933 17.4679L8.13214 17.1512C8.22224 16.8325 8.0913 16.6011 8.29037 16.3595C8.56397 16.1189 8.91025 16.2149 9.23946 16.3595C9.53525 16.5674 9.45392 16.7909 9.39766 17.1512C9.34249 17.4202 9.49383 17.414 9.87227 17.3096C10.1669 17.1601 10.2922 17.15 10.5051 17.1512C10.6421 17.1973 10.7131 17.2301 10.8215 17.3096C10.9662 17.5566 10.9976 17.6584 10.9796 17.7845C10.8685 18.3145 10.6983 18.4363 10.3468 18.5762C9.98744 19.0913 9.90759 19.3465 10.1886 19.6845C10.9055 20.5275 11.0381 20.9589 12.4034 21.9012C12.8333 22.1526 12.7556 22.183 12.5616 22.2179C12.1658 22.3438 11.7706 22.8513 11.7706 23.8012Z" fill="#900020"/>
<path d="M7.93257 45.2275L7.71218 45.2251C7.49546 45.2083 7.42579 45.2234 7.25439 45.1253C7.41417 45.0903 7.50283 45.0694 7.58731 44.9498L7.63963 44.8232C7.69195 44.6971 8.15758 44.9981 8.10526 45.1246C8.05291 45.2508 7.93257 45.2275 7.93257 45.2275Z" fill="#900020"/>
<path d="M4.51333 44.064L4.50201 44.2827C4.505 44.4984 4.48576 44.5663 4.57196 44.7418C4.61653 44.5858 4.64255 44.4991 4.76612 44.4226L4.89411 44.3784C5.02213 44.3338 4.75364 43.8548 4.62561 43.8994C4.49763 43.9436 4.51333 44.064 4.51333 44.064Z" fill="#900020"/>
<path d="M5.06844 40.5734L4.83588 40.5484C4.61015 40.5347 4.53345 40.5152 4.3721 40.5676C4.54812 40.6132 4.64604 40.6396 4.75953 40.7394L4.84041 40.8402C4.92129 40.941 5.35264 40.772 5.27176 40.6712C5.19088 40.5704 5.06844 40.5734 5.06844 40.5734Z" fill="#900020"/>
<path d="M3.19875 41.75L3.03882 41.8696C2.88876 41.9996 2.83024 42.0239 2.75424 42.1981C2.8887 42.1422 2.96394 42.1124 3.08589 42.1682L3.18766 42.2464C3.28944 42.3249 3.47846 41.8226 3.37668 41.7445C3.27491 41.666 3.19875 41.75 3.19875 41.75Z" fill="#900020"/>
<path d="M13.3526 34.0946C13.8467 34.3832 15.127 34.9924 16.8329 35.0445C17.015 35.0308 17.0454 35.0593 17.1493 35.2029C17.1571 35.254 17.1584 35.2869 17.1493 35.3613C17.1323 35.5194 17.0872 35.6298 16.9911 35.8362C16.7238 36.3104 16.5455 36.548 16.2002 36.9446C15.8548 37.341 15.9662 37.6917 16.6748 37.7363L16.6428 37.7483C15.6929 38.1083 15.1506 38.314 13.9855 38.528C12.1767 38.878 12.3987 39.3954 13.8272 40.5861C13.0047 40.3832 12.9429 40.7024 13.5109 42.0114C12.9792 41.8417 12.3411 41.9185 10.6633 42.3278C9.64364 42.7338 9.09198 42.9789 8.60684 43.4363C8.36266 43.7466 8.47799 44.0161 8.44864 44.5448C8.36156 44.8664 8.23353 44.8876 7.81583 44.5448L7.34128 43.9112C6.62046 43.2796 6.39215 44.0696 6.23392 44.228C6.0757 44.3864 4.63281 44.4241 4.96837 43.4363C5.03351 42.9968 4.70235 42.9381 3.86097 42.9614C3.67799 42.9587 3.60558 42.8641 3.54459 42.4862C3.68718 41.6404 4.02195 41.5732 4.96833 42.0114C5.20069 42.1585 5.2444 42.2288 5.28472 42.3278C5.4196 42.7067 5.62216 42.6049 5.75931 42.3278C5.85791 42.1574 5.70006 41.9449 5.28472 41.5362C4.72899 41.0291 5.35494 40.8059 6.0757 41.0613C6.48681 41.276 6.34285 41.2448 6.86667 41.6946C7.39045 42.1444 10.102 41.543 9.23961 38.8448C9.10926 38.4916 8.07973 38.9233 8.13222 38.8448C8.18475 38.7659 8.7254 37.9334 8.60677 37.4195C8.02621 37.6794 7.02486 37.5779 7.18305 37.5779C7.34128 37.5779 8.4902 36.4814 8.43846 36.0073C7.74675 35.8403 7.6576 35.2029 7.49941 35.0445C7.34128 34.8861 8.14638 35.361 8.29045 35.3613C8.43441 35.3617 9.47663 35.6216 8.76507 34.4113C9.38554 34.508 9.78143 34.1781 10.6633 33.7779C11.5453 33.3779 12.8586 33.8061 13.3526 34.0946Z" fill="#900020"/>
<path d="M2.5871 30.6288L2.70577 30.8572C2.83793 31.0745 2.85828 31.1548 3.05442 31.2833C3.00813 31.0989 2.98386 30.9959 3.06874 30.8469L3.17756 30.7279C3.28639 30.609 2.71602 30.2775 2.6072 30.3965C2.49838 30.5154 2.5871 30.6288 2.5871 30.6288Z" fill="#900020"/>
<path d="M3.82741 26.1083L3.51791 26.1928C3.22235 26.289 3.11481 26.3012 2.9332 26.4547C3.18017 26.427 3.318 26.4129 3.51064 26.4906L3.66205 26.5864C3.81342 26.6822 4.2855 26.2334 4.13413 26.1377C3.98272 26.042 3.82741 26.1083 3.82741 26.1083Z" fill="#900020"/>
<path d="M5.07814 30.8289L4.85953 30.8137C4.64401 30.7834 4.57558 30.7957 4.40189 30.6804C4.55895 30.6517 4.64603 30.6345 4.72513 30.5102L4.77217 30.3773C4.81918 30.2442 5.29239 30.595 5.24535 30.728C5.19834 30.861 5.07814 30.8289 5.07814 30.8289Z" fill="#900020"/>
<path d="M1.57719 27.0029L1.2921 27.1435C1.02243 27.2949 0.920507 27.3249 0.770599 27.5221C1.00476 27.4537 1.13564 27.417 1.33492 27.4733L1.49731 27.5557C1.6597 27.6382 2.04104 27.0707 1.87866 26.9883C1.71627 26.9058 1.57719 27.0029 1.57719 27.0029Z" fill="#900020"/>
<path d="M0.738281 27.5509L0.770602 27.5221L0.738281 27.5509ZM0.770602 27.5221C0.92051 27.3249 1.02244 27.2949 1.2921 27.1435L1.5772 27.0029C1.5772 27.0029 1.71627 26.9058 1.87866 26.9883C2.04105 27.0707 1.65971 27.6382 1.49732 27.5557C1.33493 27.4733 1.33493 27.4733 1.33493 27.4733C1.13564 27.417 1.00476 27.4537 0.770602 27.5221Z" stroke="#900020" stroke-width="0.143572"/>
<path d="M1.57719 27.0029L1.2921 27.1435C1.02243 27.2949 0.920507 27.3249 0.770599 27.5221C1.00476 27.4537 1.13564 27.417 1.33492 27.4733L1.49731 27.5557C1.6597 27.6382 2.04104 27.0707 1.87866 26.9883C1.71627 26.9058 1.57719 27.0029 1.57719 27.0029Z" fill="#900020"/>
<path d="M6.42947 18.2348L6.35081 18.4454C6.28594 18.6551 6.24731 18.7187 6.26976 18.8999C6.35877 18.7539 6.40924 18.6731 6.54425 18.6144L6.6732 18.5875C6.80212 18.5605 6.71095 18.062 6.58204 18.0889C6.45309 18.1159 6.42947 18.2348 6.42947 18.2348Z" fill="#900020"/>
<path d="M10.753 16.6661L10.5876 16.5139C10.4178 16.3749 10.3734 16.3151 10.1971 16.2676C10.2988 16.405 10.3546 16.4822 10.3581 16.6294L10.3345 16.759C10.311 16.8886 10.8072 16.992 10.8307 16.8624C10.8543 16.7328 10.753 16.6661 10.753 16.6661Z" fill="#900020"/>
<path d="M8.14547 15.8739L7.92124 15.8861C7.70336 15.9105 7.62961 15.9006 7.47272 15.9936C7.64195 16.0168 7.7361 16.0307 7.84386 16.131L7.92008 16.2383C7.99633 16.3457 8.41636 16.0626 8.34015 15.9552C8.26389 15.8479 8.14547 15.8739 8.14547 15.8739Z" fill="#900020"/>
<path d="M23.9514 34.729C26.0079 34.4125 26.0185 31.5311 24.7424 31.0874C23.4662 30.6436 22.8896 30.0104 22.5276 28.8707C23.5806 29.7129 23.8917 29.9372 24.1096 29.979C24.4175 30.0308 24.5431 29.9927 24.5842 29.6624C24.1761 27.6655 24.222 26.5894 24.9006 24.9124C25.7251 23.5637 26.4052 22.9966 27.4317 22.5373L27.7481 22.379C26.9264 21.3228 27.1375 20.8661 28.0644 20.1623C27.9878 20.7416 27.9801 21.0275 28.0644 21.429C28.7358 21.4103 28.9635 21.1342 29.0136 20.004V19.2123C29.0136 19.054 29.2324 18.237 30.121 18.2623C29.7791 18.6759 29.6409 18.9354 29.6464 19.529C29.7444 19.9637 29.9019 20.0785 30.2792 20.1623C30.4364 20.2178 30.4374 20.3206 30.4374 20.479C30.4374 20.6373 30.6503 21.0277 30.2792 21.7457C30.8483 21.8668 31.121 21.7074 31.5447 21.1123C31.396 23.1293 30.9794 23.7363 29.4882 23.6456C28.6652 23.5368 28.2143 23.5634 27.4317 23.804C25.924 24.6027 25.5617 25.3652 25.5333 27.129L25.6853 27.4331C25.6017 27.2182 26.6149 26.8229 26.6407 26.8124C26.667 26.8016 25.2386 28.7203 25.5333 29.1873C25.7612 30.4912 26.0961 31.1017 26.9571 32.0374C27.254 31.8166 27.4317 31.7207 27.5899 30.929C27.7481 30.1374 27.8754 32.2156 27.4317 33.1457C26.3596 35.4582 24.6095 36.1031 21.7367 35.9958C21.5298 36.9668 21.6925 37.4362 22.2112 38.2124C23.2169 38.534 23.5408 38.5491 24.2678 37.7375C24.707 37.4869 24.9914 37.4773 25.5333 37.5791C25.5168 38.0478 25.6935 38.1545 26.1661 38.2124C25.7258 38.4106 25.6546 38.583 25.8498 39.0041C26.2003 39.3939 26.3005 39.6377 26.3243 40.1125C25.4858 40.5267 25.636 40.8726 26.1661 41.5374C24.9164 42.1529 24.9806 42.6726 24.7424 43.4375C24.5041 44.2021 24.083 44.6687 23.635 44.8625C23.187 45.0558 23.9514 45.1789 23.9514 45.3373C23.9514 45.4957 23.7932 46.129 23.635 46.129C23.4768 46.129 23.1604 46.129 23.0022 46.2874C22.844 46.4458 22.8501 46.0714 22.5276 45.9706C22.1435 46.1111 22.0358 46.214 22.0531 46.4458C21.9059 46.8994 21.7912 47.0876 21.4203 47.079H20.4711C20.3129 47.079 20.6953 46.67 20.6293 46.4458C20.4764 46.2905 20.5459 46.2503 20.2295 46.4087C19.9131 46.5668 20.114 46.7924 20.0713 46.8836C20.0285 46.9748 19.9427 47.0646 19.6801 47.079C19.04 47.054 18.6811 47.0396 18.4146 46.7626C18.2416 46.6775 18.1948 46.6124 18.2564 46.4458C18.5434 45.7292 18.8508 45.4405 19.5219 45.0209C19.5527 44.9286 19.5568 44.881 19.3638 44.8625C18.9496 44.7802 18.706 44.8539 18.2564 45.1789C18.3748 44.7935 18.5093 44.5988 18.8892 44.3873L19.3638 44.2292C20.2098 44.1551 20.5202 44.1613 21.1039 44.5457C21.4474 44.6105 21.5849 44.5772 21.7366 44.3873C22.5797 42.9527 22.8502 41.2385 22.3695 41.0626C21.8887 40.8863 20.4711 41.6958 20.3129 41.8542C20.1547 42.0123 20.1803 42.5393 19.6801 42.9623C19.666 42.4799 19.6028 42.2663 19.3638 42.0123C19.3358 42.5046 19.1839 42.6757 18.8892 42.9623C18.8846 42.3798 18.8784 42.0558 18.5728 41.6958C18.3257 41.4702 18.1868 41.474 17.94 41.6958L17.6236 42.0123C17.7292 41.437 17.6319 41.1579 17.1491 40.7458C16.6557 40.0474 16.4515 39.5653 16.9908 37.5791C17.0778 37.4019 16.1701 37.5291 16.3581 37.2623C16.546 36.9956 17.7259 35.5971 17.3072 35.0458C17.3072 35.0458 17.3073 34.8874 17.6236 35.0458C17.6236 35.0458 17.7818 35.0458 17.6236 34.729C17.4654 34.4125 16.6074 33.4406 13.3524 31.5624C12.6568 30.991 12.5426 30.5489 12.5614 29.6624C12.5107 29.419 12.38 29.3734 12.0868 29.3457C11.785 29.5164 11.7578 29.621 11.9287 29.8207C12.0247 30.1936 11.8811 30.46 11.7704 30.929C11.4647 29.8397 11.0493 29.6166 10.0303 29.6624C10.2575 29.8901 10.2361 30.0914 9.87209 30.6124C9.61615 29.8529 9.41164 29.6421 8.92293 29.6624C8.92293 29.6624 8.7647 30.6124 8.13196 30.2957C7.49918 29.979 7.11988 29.5319 6.55001 29.6624C6.07656 29.8521 5.91724 30.4541 5.60085 30.4541C5.28446 30.4541 4.75488 30.0424 4.33529 29.3457C4.29137 29.737 4.23038 29.919 4.01891 30.1374C3.86448 30.2395 3.76457 30.2797 3.54432 30.2957C3.0985 30.3297 2.9393 30.2976 2.75335 30.1374C2.65402 30.0214 2.70776 29.9726 2.75335 29.8207C2.79892 29.6688 3.11554 28.4264 2.91154 28.3957C2.60264 28.6187 2.42945 28.6349 2.12054 28.3957C1.81162 28.1565 1.85275 26.8011 2.75331 26.8124C3.02272 26.8038 3.15089 27.188 3.38605 27.7624C3.53705 27.928 3.60803 27.936 3.70245 27.7624C3.62716 27.3255 3.6671 27.1194 3.86064 26.8124C4.25075 26.4045 4.69379 26.1629 4.80981 26.4957C4.92583 26.8285 4.88723 27.4366 5.1262 27.604C5.59615 27.8526 5.90051 27.8733 6.55001 27.604C8.23228 26.6086 9.21611 26.4115 11.1376 26.4957C12.3153 26.9212 12.8249 26.8696 13.3524 26.3373C13.6677 26.7077 13.7091 27.0466 13.6687 27.7624C13.4758 28.4697 13.2693 28.6334 12.8778 28.8707C13.9832 28.9778 14.6658 28.8968 16.0416 28.3957C15.9653 30.1001 16.2813 30.8139 17.6235 31.5624C17.8393 30.614 18.1301 30.1327 18.8891 29.3457C18.9198 29.8881 18.9478 30.1929 19.5219 30.7707C20.1045 32.7162 20.5604 33.6623 22.2112 34.4125C22.6132 34.5956 22.8194 34.67 23.1604 34.729H23.9514Z" fill="#900020"/>
<path d="M23.1603 46.445C23.0021 46.6034 23.0801 46.9065 22.6858 47.0782C22.6858 47.0782 23.3186 47.0412 23.3186 46.8828C23.3186 46.7247 23.6349 46.6034 23.7931 46.445C23.9513 46.2866 23.3185 46.2866 23.1603 46.445Z" fill="#900020"/>
<path d="M20.6225 47.5935L20.833 47.7413C21.0503 47.8729 21.1054 47.9346 21.3385 47.9583C21.2124 47.816 21.1435 47.7358 21.15 47.5647L21.1916 47.4087C21.2332 47.253 20.5748 47.2222 20.5332 47.3778C20.4916 47.5335 20.6225 47.5935 20.6225 47.5935Z" fill="#900020"/>
<path d="M18.2878 47.3332L18.3999 47.565C18.5259 47.7858 18.544 47.8667 18.7364 48.0008C18.6953 47.8153 18.674 47.7114 18.7631 47.565L18.8752 47.4491C18.9874 47.3332 18.4267 46.9856 18.3145 47.1014C18.2024 47.2173 18.2878 47.3332 18.2878 47.3332Z" fill="#900020"/>
<path d="M7.28383 20.2634L7.11638 20.0532C6.96491 19.8391 6.89743 19.7808 6.85547 19.5684C7.01061 19.7021 7.09787 19.7756 7.27266 19.7948L7.42879 19.7802C7.5849 19.7657 7.66711 20.3604 7.51098 20.375C7.35487 20.3895 7.28383 20.2634 7.28383 20.2634Z" fill="#900020"/>
<path d="M16.3584 16.2028C16.4488 16.3488 16.5204 16.3382 16.6753 16.2028C16.4406 15.9717 16.3734 15.9765 16.3584 16.2028Z" fill="#900020" stroke="#900020" stroke-width="0.143572"/>
<path fill-rule="evenodd" clip-rule="evenodd" d="M19.6803 30.4527C19.9679 29.329 20.0805 28.7041 20.1549 27.6026C20.7397 27.8784 20.918 28.2864 20.946 29.5027C21.8238 28.6053 21.9594 28.0003 21.2623 26.6527C22.222 26.9044 22.5648 27.0955 22.5279 27.6026C22.916 26.5322 22.8441 25.8793 22.0533 24.5943C22.9657 25.007 23.3866 25.03 23.7934 24.2777C23.123 24.1107 23.1914 23.2921 23.4771 22.3776C23.823 21.5196 23.6606 21.0341 23.4375 20.367C23.399 20.2519 23.3586 20.1314 23.3189 20.0027L23.0025 19.5276C23.1684 19.4692 23.3138 19.5541 23.6353 19.8443C23.1997 18.0924 22.7913 17.3338 21.8951 16.2026C21.3617 15.6106 21.0896 15.3877 20.6295 15.0943C18.7905 14.2689 18.0324 14.1799 17.4656 15.0943C16.2824 15.0318 15.7972 15.1065 15.7255 15.7276L14.1435 16.361C14.0304 16.4322 13.9919 16.4675 13.9853 16.5193C13.9348 16.7198 14.0081 16.7627 14.1435 16.8359L15.2509 16.361L14.1435 16.9943C13.8821 17.152 14.1857 17.5682 14.9345 17.9443L16.2 17.311C18.1562 16.7003 17.8227 18.1435 17.4656 18.7359C16.75 19.3738 16.2638 19.65 14.7763 19.5276C14.5736 19.667 14.7684 19.8704 15.7255 20.4776C15.6512 20.045 15.942 19.985 16.8976 20.145C18.4568 19.7516 18.9734 18.9482 18.4147 16.8359C19.0862 17.0925 19.2531 17.0945 19.6803 16.6777L19.2057 16.5193L19.3639 16.361C19.9791 16.5665 20.236 16.6161 20.6295 16.2026L19.9967 16.0126L20.1549 15.8859L20.8737 16.1189C20.7074 16.4882 20.3866 16.6741 19.9967 16.6777L19.8385 16.8359C19.2837 17.3368 19.0364 17.3093 18.6995 17.1526C19.1752 19.26 18.5303 19.7378 16.991 20.161C17.0358 20.4575 17.0405 20.6556 16.9893 20.7958L16.991 20.7943C18.6309 20.4998 19.2465 19.8811 19.6804 17.786C19.5911 19.9957 18.8094 20.5813 16.6839 21.0708L16.6801 21.0723L16.6746 21.0744C16.4336 21.1045 16.1711 21.1162 15.8837 21.111C14.1968 21.1618 13.4258 21.2924 13.5107 22.3776C13.0284 22.3574 12.8018 22.4023 12.5616 22.6943C12.2832 22.9477 12.1992 23.4201 12.087 24.436C11.9974 25.1432 11.858 25.5425 11.1378 26.0193C12.1971 26.5375 12.5383 26.6052 13.1943 26.0193L13.3525 25.861C13.7707 26.2956 14.002 26.6465 13.9853 27.6026C13.9169 28.1631 13.8163 28.3765 13.5107 28.6794C14.6239 28.5921 15.2471 28.4275 16.3583 27.9193C16.2098 29.8176 16.497 30.4992 17.4656 31.2443C17.5665 30.2095 19.0057 28.6944 19.0476 28.8694C19.0542 28.8971 19.0627 28.958 19.0744 29.0405C19.1358 29.4775 19.2825 30.5204 19.6803 30.4527ZM15.7254 16.2026C16.2161 16.6742 16.6585 16.6239 17.6238 16.2026C18.3567 16.0133 18.6622 15.8187 18.8893 15.2526C18.5358 15.7087 18.1885 15.9072 17.4825 16.1277C17.4768 16.1247 17.4712 16.1219 17.4656 16.1189C16.579 15.6604 16.1598 15.6411 15.7254 16.2026ZM20.4713 21.4277C21.3838 19.7771 21.5968 18.8154 21.1041 16.9943C21.9422 19.0873 21.6509 20.0071 20.4713 21.4277Z" fill="#900020"/>
<path d="M17.1492 18.5772C16.9088 18.9722 16.6647 19.0698 16.2 19.2106C16.0129 18.8424 15.8882 18.6657 15.4091 18.7355C15.1124 18.769 14.862 18.9323 14.4599 19.1472C14.1432 19.2095 13.9348 19.2934 13.5107 19.3056C12.8595 19.2669 12.6222 19.102 12.2452 18.8939C11.8446 18.4901 11.869 18.102 12.087 17.3105C11.8794 18.3866 12.2242 18.6248 13.0362 18.8939C13.8483 19.019 14.2235 18.9396 14.7763 18.5772C15.5576 18.1158 16.0509 18.0322 17.1492 18.5772Z" fill="#900020"/>
<path d="M19.9788 4.17263C19.9788 3.85013 17.2401 4.17263 17.2401 4.17263C17.175 4.33469 17.0196 4.40251 16.5958 4.49512L16.6049 4.50509C17.0606 5.00066 17.319 5.2816 17.8845 5.62377C18.4538 5.96824 19.1123 6.28631 18.8511 4.81764C19.2889 4.93929 19.9788 4.49512 19.9788 4.17263Z" fill="#900020"/>
<path d="M19.9788 4.17258C19.9788 3.85013 17.2401 4.17258 17.2401 4.17258C17.175 4.01052 17.0196 3.94266 16.5958 3.85009L16.6049 3.84008C17.0606 3.34452 17.319 3.06358 17.8845 2.72142C18.4538 2.37696 19.1123 2.05886 18.8511 3.52753C19.2889 3.40588 19.9788 3.77151 19.9788 4.17258Z" fill="#900020"/>
<path d="M11.7042 4.17263C11.7042 3.85013 14.4428 4.17263 14.4428 4.17263C14.5079 4.33469 14.6633 4.40251 15.0872 4.49512L15.0781 4.50509C14.6224 5.00066 14.364 5.2816 13.7985 5.62377C13.2291 5.96824 12.5706 6.28631 12.8319 4.81764C12.3941 4.93929 11.7042 4.49512 11.7042 4.17263Z" fill="#900020"/>
<path d="M11.7042 4.17258C11.7042 3.85013 14.4428 4.17258 14.4428 4.17258C14.5079 4.01052 14.6633 3.94266 15.0872 3.85009L15.0781 3.84008C14.6224 3.34452 14.364 3.06358 13.7985 2.72142C13.2291 2.37696 12.5706 2.05886 12.8319 3.52753C12.3941 3.40588 11.7042 3.77151 11.7042 4.17258Z" fill="#900020"/>
<path d="M15.8573 0C16.1795 0 15.8573 2.74106 15.8573 2.74106C15.6953 2.80621 15.6276 2.96178 15.5351 3.38601L15.5251 3.37681C15.03 2.92073 14.7493 2.66218 14.4075 2.0961C14.0633 1.52623 13.7455 0.867195 15.2128 1.12867C15.0913 0.690456 15.5351 0 15.8573 0Z" fill="#900020"/>
<path d="M15.8573 0C16.1795 0 15.8573 2.74106 15.8573 2.74106C16.0192 2.80621 16.0871 2.96178 16.1796 3.38601L16.1896 3.37681C16.6846 2.92073 16.9653 2.66218 17.3072 2.0961C17.6514 1.52623 17.9692 0.867195 16.5018 1.12867C16.6233 0.690456 16.2581 1.04475e-06 15.8573 0Z" fill="#900020"/>
<path d="M6.9103 4.77401C7.13813 5.00201 4.97377 6.71225 4.97377 6.71225C4.81325 6.64368 4.65543 6.70573 4.29032 6.94025L4.28974 6.92667C4.26183 6.25375 4.24602 5.87228 4.40422 5.23004C4.56347 4.58352 4.80433 3.89259 5.65722 5.11597C5.88087 4.72011 6.68247 4.54597 6.9103 4.77401Z" fill="#900020"/>
<path d="M6.91026 4.77344C7.13809 5.00147 4.97374 6.71168 4.97374 6.71168C5.0422 6.87231 4.98025 7.03033 4.74594 7.39575L4.75948 7.39633C5.43183 7.42427 5.81295 7.44008 6.4546 7.28171C7.10058 7.12235 7.79092 6.88126 6.56857 6.02764C6.96412 5.80379 7.1936 5.05701 6.91026 4.77344Z" fill="#900020"/>
<path d="M24.8729 4.77401C24.6451 5.00201 26.8094 6.71225 26.8094 6.71225C26.9699 6.64368 27.1278 6.70573 27.4929 6.94025L27.4935 6.92667C27.5214 6.25375 27.5372 5.87228 27.379 5.23004C27.2197 4.58352 26.9789 3.89259 26.126 5.11597C25.9023 4.72011 25.1007 4.54597 24.8729 4.77401Z" fill="#900020"/>
<path d="M24.8727 4.77344C24.6449 5.00147 26.8092 6.71168 26.8092 6.71168C26.7407 6.87231 26.8027 7.03033 27.0371 7.39575L27.0235 7.39633C26.3511 7.42427 25.97 7.44008 25.3284 7.28171C24.6824 7.12235 23.9921 6.88126 25.2144 6.02764C24.8188 5.80379 24.5894 5.05701 24.8727 4.77344Z" fill="#900020"/>
<path d="M9.48586 5.76324C9.81016 5.76324 10.073 5.50013 10.073 5.17558C10.073 4.851 9.81016 4.58789 9.48586 4.58789C9.16155 4.58789 8.89871 4.851 8.89871 5.17558C8.89871 5.50013 9.16155 5.76324 9.48586 5.76324Z" fill="#900020"/>
<path d="M10.3342 6.80816C10.6584 6.80816 10.9213 6.54509 10.9213 6.2205C10.9213 5.89592 10.6584 5.63281 10.3342 5.63281C10.0098 5.63281 9.74698 5.89592 9.74698 6.2205C9.74698 6.54509 10.0098 6.80816 10.3342 6.80816Z" fill="#900020"/>
<path d="M8.96422 7.00347C9.28853 7.00347 9.5514 6.7404 9.5514 6.41578C9.5514 6.09123 9.28853 5.82812 8.96422 5.82812C8.63994 5.82812 8.37708 6.09123 8.37708 6.41578C8.37708 6.7404 8.63994 7.00347 8.96422 7.00347Z" fill="#900020"/>
<path d="M21.9494 5.80255C22.2652 5.87664 22.5811 5.68056 22.6551 5.36455C22.7292 5.04857 22.5333 4.73232 22.2176 4.65823C21.9018 4.58414 21.5859 4.78022 21.5119 5.09623C21.4378 5.41221 21.6337 5.72846 21.9494 5.80255Z" fill="#900020"/>
<path d="M21.1098 6.81427C21.4256 6.88836 21.7416 6.69228 21.8156 6.37627C21.8896 6.06029 21.6937 5.74404 21.378 5.66995C21.0622 5.59586 20.7462 5.79194 20.6723 6.10795C20.5982 6.42392 20.7941 6.74014 21.1098 6.81427Z" fill="#900020"/>
<path d="M22.5369 6.949C22.8526 7.02312 23.1686 6.82704 23.2426 6.51107C23.3166 6.19506 23.1207 5.8788 22.805 5.80471C22.4892 5.73062 22.1733 5.9267 22.0993 6.24271C22.0252 6.55872 22.2211 6.87491 22.5369 6.949Z" fill="#900020"/>
<path d="M7.26773 11.4453L6.2239 12.3921C4.92194 12.2651 4.73635 12.0801 5.86507 11.4453H7.26773Z" fill="#900020"/>
<path d="M24.4259 11.4453L25.4697 12.3921C26.7717 12.2651 26.9573 12.0801 25.8286 11.4453H24.4259Z" fill="#900020"/>
<path d="M6.71303 13.6321C10.1897 13.1867 12.2237 13.0248 15.8792 12.8812V12.0977C12.3284 12.1461 10.3397 12.2926 6.97401 12.9792C6.03856 13.5396 5.97753 13.6832 6.71303 13.6321Z" fill="#900020"/>
<path d="M25.013 13.6321C21.5363 13.1867 19.535 13.0248 15.8794 12.8812V12.0977C19.4302 12.1461 21.3864 12.2926 24.752 12.9792C25.6875 13.5396 25.7485 13.6832 25.013 13.6321Z" fill="#900020"/>
<path d="M15.8142 11.052C16.715 11.052 17.4452 10.862 17.4452 10.6275C17.4452 10.3931 16.715 10.2031 15.8142 10.2031C14.9134 10.2031 14.1832 10.3931 14.1832 10.6275C14.1832 10.862 14.9134 11.052 15.8142 11.052Z" fill="#900020"/>
<path d="M4.82151 10.5951C9.13105 9.44869 11.5565 9.46196 15.8796 9.28916V8.375C11.3012 8.58874 8.83681 8.78801 5.1477 9.84418C4.74286 10.1376 4.71903 10.3021 4.82151 10.5951Z" fill="#900020"/>
<path d="M26.9375 10.5951C22.628 9.44869 20.2026 9.46196 15.8794 9.28916V8.375C20.4579 8.58874 22.9222 8.78801 26.6113 9.84418C27.0162 10.1376 27.04 10.3021 26.9375 10.5951Z" fill="#900020"/>
<path fill-rule="evenodd" clip-rule="evenodd" d="M6.51753 12.6192C10.0514 11.9493 12.1537 11.8472 15.8794 11.7704C19.6051 11.8472 21.6748 11.9493 25.2087 12.6192C25.5337 12.6971 24.9757 12.2136 24.0303 11.3945L24.0303 11.3945L23.9365 11.3133C25.6641 11.2732 26.4382 11.191 26.2525 10.9868C22.6649 9.82735 20.3375 9.57669 15.8794 9.51758C11.4213 9.57669 9.06132 9.82735 5.47367 10.9868C5.28797 11.191 6.06211 11.2732 7.7897 11.3133L7.69593 11.3945C6.75053 12.2136 6.19247 12.6971 6.51753 12.6192ZM17.8692 10.6276C17.8692 11.1827 16.8115 11.2894 15.8794 11.3133C14.9473 11.2894 13.857 11.1827 13.857 10.6276C13.857 10.0726 14.9008 9.87672 15.8794 9.87672C16.858 9.87672 17.8692 10.0726 17.8692 10.6276ZM13.6613 10.2032C13.6613 10.4196 13.486 10.595 13.2698 10.595C13.0536 10.595 12.8784 10.4196 12.8784 10.2032C12.8784 9.98681 13.0536 9.81144 13.2698 9.81144C13.486 9.81144 13.6613 9.98681 13.6613 10.2032ZM13.2698 11.705C13.486 11.705 13.6613 11.5297 13.6613 11.3133C13.6613 11.0969 13.486 10.9215 13.2698 10.9215C13.0536 10.9215 12.8784 11.0969 12.8784 11.3133C12.8784 11.5297 13.0536 11.705 13.2698 11.705ZM9.02923 11.7704C9.02923 11.9867 8.854 12.1621 8.63779 12.1621C8.42159 12.1621 8.24635 11.9867 8.24635 11.7704C8.24635 11.5539 8.42159 11.3786 8.63779 11.3786C8.854 11.3786 9.02923 11.5539 9.02923 11.7704ZM8.44209 11.1174C8.65829 11.1174 8.83353 10.942 8.83353 10.7256C8.83353 10.5092 8.65829 10.3338 8.44209 10.3338C8.22588 10.3338 8.05065 10.5092 8.05065 10.7256C8.05065 10.942 8.22588 11.1174 8.44209 11.1174ZM23.4472 11.8356C23.4472 12.052 23.272 12.2274 23.0558 12.2274C22.8396 12.2274 22.6643 12.052 22.6643 11.8356C22.6643 11.6193 22.8396 11.4439 23.0558 11.4439C23.272 11.4439 23.4472 11.6193 23.4472 11.8356ZM18.4238 11.705C18.64 11.705 18.8152 11.5297 18.8152 11.3133C18.8152 11.0969 18.64 10.9215 18.4238 10.9215C18.2076 10.9215 18.0323 11.0969 18.0323 11.3133C18.0323 11.5297 18.2076 11.705 18.4238 11.705ZM23.6429 10.7909C23.6429 11.0073 23.4677 11.1827 23.2515 11.1827C23.0353 11.1827 22.8601 11.0073 22.8601 10.7909C22.8601 10.5745 23.0353 10.3991 23.2515 10.3991C23.4677 10.3991 23.6429 10.5745 23.6429 10.7909ZM18.4238 10.595C18.64 10.595 18.8152 10.4196 18.8152 10.2032C18.8152 9.98681 18.64 9.81144 18.4238 9.81144C18.2076 9.81144 18.0323 9.98681 18.0323 10.2032C18.0323 10.4196 18.2076 10.595 18.4238 10.595ZM19.7706 11.1874C19.5438 11.0264 19.4925 10.8811 19.5031 10.7959C19.5138 10.7106 19.5994 10.5825 19.8588 10.4825C20.1067 10.387 20.456 10.3444 20.8443 10.393C21.2326 10.4417 21.5606 10.5693 21.7773 10.7232C22.004 10.8841 22.0553 11.0293 22.0446 11.1146C22.034 11.2 21.9484 11.328 21.689 11.428C21.4411 11.5236 21.0918 11.5661 20.7035 11.5174C20.3152 11.4687 19.9872 11.3412 19.7706 11.1874ZM20.671 11.7766C19.8263 11.6706 19.1874 11.217 19.2442 10.7634C19.301 10.3098 20.0319 10.028 20.8768 10.1339C21.7216 10.2398 22.3604 10.6935 22.3036 11.1471C22.2468 11.6008 21.5158 11.8826 20.671 11.7766ZM12.1282 10.7959C12.1389 10.8811 12.0876 11.0264 11.8608 11.1874C11.6442 11.3412 11.3162 11.4687 10.9278 11.5174C10.5396 11.5661 10.1902 11.5236 9.9424 11.428C9.68299 11.328 9.59741 11.2 9.58672 11.1146C9.57609 11.0293 9.62741 10.8841 9.85415 10.7232C10.0708 10.5693 10.3988 10.4417 10.7871 10.393C11.1754 10.3444 11.5246 10.387 11.7726 10.4825C12.032 10.5825 12.1176 10.7106 12.1282 10.7959ZM12.3871 10.7634C12.444 11.217 11.8051 11.6706 10.9603 11.7766C10.1155 11.8826 9.3846 11.6008 9.32779 11.1471C9.27101 10.6935 9.90986 10.2398 10.7546 10.1339C11.5994 10.028 12.3304 10.3098 12.3871 10.7634Z" fill="#900020"/>
<path d="M12.6826 8.53932C14.1461 8.2136 14.7923 7.62331 15.8794 6.41714V3.60938C15.6137 3.67764 15.4765 3.70232 15.2922 3.9032C15.264 5.89164 14.913 7.00514 12.5848 7.55984C11.8305 7.71266 11.3802 7.73216 10.2362 6.93951L9.15969 7.03747C7.97906 8.38298 7.21418 8.55564 5.73461 8.21282C4.79765 8.02116 4.29633 7.8318 3.67956 6.54773C3.67301 5.53006 3.77131 4.89687 3.35335 4.13175C3.0658 3.73003 2.84104 3.88575 2.40738 4.3603C1.86851 3.93512 1.56071 3.97057 1.00472 4.3603C0.378657 5.59699 0.680604 5.69906 1.85284 5.3071L3.02715 6.93951C2.27767 8.13289 2.79363 8.00381 3.58168 7.88635C4.4419 8.81539 5.02425 9.4098 7.46347 9.22493C8.18899 9.05333 8.79317 8.73005 9.84472 7.69044C10.658 8.35119 11.317 8.49509 12.6826 8.53932Z" fill="#900020"/>
<path d="M19.0311 8.53932C17.5677 8.2136 16.9215 7.62331 15.8344 6.41714L15.8794 3.60938C16.145 3.67764 16.2372 3.70232 16.4215 3.9032C16.4497 5.89164 16.8007 7.00514 19.129 7.55984C19.8833 7.71266 20.3335 7.73216 21.4776 6.93951L22.5541 7.03747C23.7347 8.38298 24.4996 8.55564 25.9791 8.21282C26.9161 8.02116 27.4174 7.8318 28.0342 6.54773C28.0407 5.53006 27.9424 4.89687 28.3604 4.13175C28.648 3.73003 28.8727 3.88575 29.3064 4.3603C29.8452 3.93512 30.1531 3.97057 30.709 4.3603C31.3351 5.59699 31.0331 5.69906 29.8609 5.3071L28.6866 6.93951C29.4361 8.13289 28.9201 8.00381 28.1321 7.88635C27.2719 8.81539 26.6895 9.4098 24.2503 9.22493C23.5248 9.05333 22.9206 8.73005 21.869 7.69044C21.0558 8.35119 20.3968 8.49509 19.0311 8.53932Z" fill="#900020"/>
</svg>